# xmcd
#
# Track frame offsets:
#	150
#	11419
#	25389
#	36960
#	46314
#	58882
#	73172
#	86082
#	99883
#	113238
#	129023
#	142194
#	152821
#	164672
#	176834
#	189259
#	202454
#	215687
#	227241
#	238170
#	249332
#	260405
#	274421
#	285773
#	299098
#
# Disc length: 4154 seconds
#
# Revision: 1
# Processed by: cddbd v1.5.2PL0 Copyright (c) Steve Scherf et al.
# Submitted via: audiograbber 1.83.01
#
DISCID=85103819
DTITLE=Various Artist - Electric Blues CD05- Teil 2 - 1939 - 2005
DYEAR=2010
DGENRE=Blues
TTITLE0=Bo Diddley - Who do you love
TTITLE1=Bill Doggett - Honky Tonk (Part 1)
TTITLE2=Clarence Gatemouth Brown - Rock my Blues away
TTITLE3=Jackie Brenston - Gonna wait for my Chance
TTITLE4=Jimmy Rogers - Walking by Myself
TTITLE5=Lonesome Sundown - My Home is a Prison
TTITLE6=Muddy Waters - Got my Mojo working
TTITLE7=Slim Harpo - I´m a King Bee
TTITLE8=Boyy Blue Bland - Farther up the Road
TTITLE9=Frankie Lee Sims - Walking with Frankie
TTITLE10=Magic Sam - All your Love
TTITLE11=Guitar Jr. - Family Rules
TTITLE12=Otis Rush - All your Love (I Miss Loving)
TTITLE13=Larry Davis - Texas Flood
TTITLE14=Lazy Lester - Sugar coated Love
TTITLE15=Brownie McGhee - Living with the Blues
TTITLE16=Little Milton - That will never do
TTITLE17=Fenton Robinson - As the Years go By
TTITLE18=Wilbert Harrison - Kansas City
TTITLE19=Hank Ballard and the Midnighters - Look at little Sister
TTITLE20=Jimmy Reed - Baby what you want me to do
TTITLE21=Memphis Slim - Messin´ Around
TTITLE22=Lightnin´ Slim - Rooster Blues
TTITLE23=Buster Brown - Fannie Mae
TTITLE24=Elmore James and his Broomdusters - The Sky is crying
EXTD=
EXTT0=
EXTT1=
EXTT2=
EXTT3=
EXTT4=
EXTT5=
EXTT6=
EXTT7=
EXTT8=
EXTT9=
EXTT10=
EXTT11=
EXTT12=
EXTT13=
EXTT14=
EXTT15=
EXTT16=
EXTT17=
EXTT18=
EXTT19=
EXTT20=
EXTT21=
EXTT22=
EXTT23=
EXTT24=
PLAYORDER=
